<svg width="102" height="186" viewBox="0 0 102 186" fill="none" xmlns="http://www.w3.org/2000/svg">
<path d="M58.6099 132.95H35.4507C35.5337 124.981 36.2393 118.465 37.5674 113.402C38.9785 108.255 41.2612 103.565 44.4155 99.332C47.5698 95.0986 51.7617 90.2842 56.9912 84.8887C60.8096 80.9873 64.2959 77.335 67.4502 73.9316C70.6875 70.4453 73.3022 66.71 75.2944 62.7256C77.2866 58.6582 78.2827 53.8022 78.2827 48.1577C78.2827 42.4302 77.2451 37.4912 75.1699 33.3408C73.1777 29.1904 70.1895 25.9946 66.2051 23.7534C62.3037 21.5122 57.4478 20.3916 51.6372 20.3916C46.8228 20.3916 42.2573 21.2632 37.9409 23.0063C33.6245 24.7495 30.1382 27.4473 27.4819 31.0996C24.8257 34.6689 23.4561 39.3589 23.373 45.1694H0.338379C0.504395 35.7896 2.82861 27.7378 7.31104 21.0142C11.8765 14.2905 18.019 9.14404 25.7388 5.57471C33.4585 2.00537 42.0913 0.220703 51.6372 0.220703C62.1792 0.220703 71.144 2.12988 78.5317 5.94824C86.0024 9.7666 91.6885 15.2451 95.5898 22.3838C99.4912 29.4395 101.442 37.8232 101.442 47.5352C101.442 55.0059 99.9062 61.8955 96.835 68.2041C93.8467 74.4297 89.9868 80.2817 85.2554 85.7603C80.5239 91.2388 75.502 96.4683 70.1895 101.449C65.624 105.682 62.5527 110.455 60.9756 115.768C59.3984 121.08 58.6099 126.808 58.6099 132.95ZM34.4546 172.42C34.4546 168.685 35.6167 165.531 37.9409 162.958C40.2651 160.384 43.627 159.098 48.0264 159.098C52.5088 159.098 55.9121 160.384 58.2363 162.958C60.5605 165.531 61.7227 168.685 61.7227 172.42C61.7227 175.99 60.5605 179.061 58.2363 181.634C55.9121 184.208 52.5088 185.494 48.0264 185.494C43.627 185.494 40.2651 184.208 37.9409 181.634C35.6167 179.061 34.4546 175.99 34.4546 172.42Z" fill="white"/>
<path d="M58.6099 132.95V133.45H59.1099V132.95H58.6099ZM35.4507 132.95L34.9507 132.945L34.9454 133.45H35.4507V132.95ZM37.5674 113.402L37.0852 113.27L37.0837 113.275L37.5674 113.402ZM56.9912 84.8887L56.6339 84.5389L56.6322 84.5407L56.9912 84.8887ZM67.4502 73.9316L67.0838 73.5914L67.0835 73.5918L67.4502 73.9316ZM75.2944 62.7256L75.7417 62.9492L75.7435 62.9455L75.2944 62.7256ZM75.1699 33.3408L74.7191 33.5572L74.7227 33.5644L75.1699 33.3408ZM66.2051 23.7534L65.956 24.187L65.9599 24.1892L66.2051 23.7534ZM27.4819 31.0996L27.8831 31.3981L27.8863 31.3937L27.4819 31.0996ZM23.373 45.1694V45.6694H23.866L23.873 45.1766L23.373 45.1694ZM0.338379 45.1694L-0.161543 45.1606L-0.170549 45.6694H0.338379V45.1694ZM7.31104 21.0142L6.89737 20.7333L6.89501 20.7368L7.31104 21.0142ZM78.5317 5.94824L78.3022 6.39243L78.3042 6.39346L78.5317 5.94824ZM95.5898 22.3838L95.1511 22.6236L95.1523 22.6257L95.5898 22.3838ZM96.835 68.2041L96.3854 67.9852L96.3842 67.9877L96.835 68.2041ZM70.1895 101.449L70.5294 101.815L70.5314 101.813L70.1895 101.449ZM58.6099 132.45H35.4507V133.45H58.6099V132.45ZM35.9507 132.955C36.0334 125.009 36.7372 118.538 38.051 113.529L37.0837 113.275C35.7413 118.393 35.0339 124.954 34.9507 132.945L35.9507 132.955ZM38.0496 113.534C39.4444 108.447 41.6998 103.814 44.8165 99.6308L44.0146 99.0333C40.8227 103.317 38.5126 108.064 37.0852 113.27L38.0496 113.534ZM44.8165 99.6308C47.9538 95.4202 52.13 90.6226 57.3502 85.2367L56.6322 84.5407C51.3934 89.9458 47.1859 94.7771 44.0146 99.0333L44.8165 99.6308ZM57.3485 85.2384C61.1695 81.3343 64.6591 77.6787 67.8169 74.2715L67.0835 73.5918C63.9327 76.9912 60.4496 80.6403 56.6339 84.5389L57.3485 85.2384ZM67.8166 74.2719C71.084 70.7531 73.7268 66.9789 75.7416 62.9492L74.8472 62.502C72.8777 66.441 70.291 70.1376 67.0838 73.5914L67.8166 74.2719ZM75.7435 62.9455C77.7764 58.7949 78.7827 53.8601 78.7827 48.1577H77.7827C77.7827 53.7443 76.7968 58.5215 74.8454 62.5057L75.7435 62.9455ZM78.7827 48.1577C78.7827 42.3704 77.7342 37.3514 75.6171 33.1172L74.7227 33.5644C76.756 37.631 77.7827 42.49 77.7827 48.1577H78.7827ZM75.6207 33.1245C73.5844 28.8823 70.5247 25.6095 66.4502 23.3176L65.9599 24.1892C69.8542 26.3797 72.771 29.4986 74.7192 33.5572L75.6207 33.1245ZM66.4541 23.3199C62.458 21.0242 57.5103 19.8916 51.6372 19.8916V20.8916C57.3852 20.8916 62.1494 22.0002 65.956 24.187L66.4541 23.3199ZM51.6372 19.8916C46.7608 19.8916 42.1316 20.7747 37.7537 22.5427L38.1281 23.47C42.383 21.7517 46.8847 20.8916 51.6372 20.8916V19.8916ZM37.7537 22.5427C33.3533 24.3198 29.7906 27.075 27.0776 30.8055L27.8863 31.3937C30.4857 27.8195 33.8958 25.1792 38.1281 23.47L37.7537 22.5427ZM27.0808 30.8011C24.3451 34.4773 22.9571 39.2787 22.8731 45.1623L23.873 45.1766C23.955 39.4391 25.3063 34.8606 27.8831 31.3981L27.0808 30.8011ZM23.373 44.6694H0.338379V45.6694H23.373V44.6694ZM0.838301 45.1783C1.0029 35.8784 3.30582 27.9234 7.72706 21.2915L6.89501 20.7368C2.3514 27.5522 0.00588803 35.7007 -0.161543 45.1606L0.838301 45.1783ZM7.72469 21.295C12.2367 14.6501 18.3073 9.56164 25.9486 6.02854L25.5289 5.12087C17.7308 8.72644 11.5162 13.931 6.89738 20.7333L7.72469 21.295ZM25.9486 6.02854C33.5949 2.49315 42.1549 0.720703 51.6372 0.720703V-0.279297C42.0278 -0.279297 33.3221 1.51759 25.5289 5.12087L25.9486 6.02854ZM51.6372 0.720703C62.1202 0.720703 71.0019 2.61925 78.3022 6.39242L78.7613 5.50406C71.2862 1.64052 62.2382 -0.279297 51.6372 -0.279297V0.720703ZM78.3042 6.39346C85.6884 10.1676 91.2995 15.5759 95.1511 22.6236L96.0286 22.144C92.0775 14.9143 86.3165 9.36557 78.7593 5.50302L78.3042 6.39346ZM95.1523 22.6257C99.0051 29.5936 100.942 37.8906 100.942 47.5352H101.942C101.942 37.7559 99.9773 29.2853 96.0274 22.1418L95.1523 22.6257ZM100.942 47.5352C100.942 54.935 99.4214 61.7492 96.3854 67.9852L97.2845 68.423C100.391 62.0418 101.942 55.0767 101.942 47.5352H100.942ZM96.3842 67.9877C93.4159 74.1716 89.5809 79.9868 84.877 85.4334L85.6338 86.0871C90.3927 80.5767 94.2774 74.6878 97.2857 68.4205L96.3842 67.9877ZM84.877 85.4334C80.1571 90.8986 75.1473 96.1154 69.8475 101.084L70.5314 101.813C75.8567 96.8211 80.8908 91.5789 85.6338 86.0871L84.877 85.4334ZM69.8495 101.082C65.2266 105.369 62.102 110.217 60.4963 115.625L61.4549 115.91C63.0035 110.694 66.0214 105.996 70.5294 101.815L69.8495 101.082ZM60.4963 115.625C58.904 120.989 58.1099 126.765 58.1099 132.95H59.1099C59.1099 126.851 59.8929 121.171 61.4549 115.91L60.4963 115.625ZM34.9546 172.42C34.9546 168.798 36.0775 165.767 38.312 163.293L37.5699 162.622C35.1559 165.295 33.9546 168.572 33.9546 172.42H34.9546ZM38.312 163.293C40.5172 160.851 43.7278 159.598 48.0264 159.598V158.598C43.5261 158.598 40.0131 159.917 37.5699 162.622L38.312 163.293ZM48.0264 159.598C52.4113 159.598 55.6618 160.853 57.8653 163.293L58.6074 162.622C56.1624 159.915 52.6063 158.598 48.0264 158.598V159.598ZM57.8653 163.293C60.0998 165.767 61.2227 168.798 61.2227 172.42H62.2227C62.2227 168.572 61.0213 165.295 58.6074 162.622L57.8653 163.293ZM61.2227 172.42C61.2227 175.87 60.1038 178.821 57.8653 181.299L58.6074 181.969C61.0172 179.301 62.2227 176.11 62.2227 172.42H61.2227ZM57.8653 181.299C55.6618 183.739 52.4113 184.994 48.0264 184.994V185.994C52.6063 185.994 56.1624 184.676 58.6074 181.969L57.8653 181.299ZM48.0264 184.994C43.7278 184.994 40.5172 183.741 38.312 181.299L37.5699 181.969C40.0131 184.674 43.5261 185.994 48.0264 185.994V184.994ZM38.312 181.299C36.0734 178.821 34.9546 175.87 34.9546 172.42H33.9546C33.9546 176.11 35.16 179.301 37.5699 181.969L38.312 181.299Z" fill="black" fill-opacity="0.55"/>
</svg>
